HIERARCHY
ROOT Pelvis
{
	OFFSET -0.217368 -24.078917 2.858379
	CHANNELS 6 Xposition Yposition Zposition Zrotation Yrotation Xrotation 
	JOINT Left_hip
	{
		OFFSET 5.858135 -8.228005 -1.766408
		CHANNELS 3 Zrotation Yrotation Xrotation
		JOINT Left_knee
		{
			OFFSET 4.345143 -38.646942 0.803700
			CHANNELS 3 Zrotation Yrotation Xrotation
			JOINT Left_ankle
			{
				OFFSET -1.479033 -42.687447 -3.742800
				CHANNELS 3 Zrotation Yrotation Xrotation
				JOINT Left_foot
				{
					OFFSET 4.105436 -6.028605 12.204244
					CHANNELS 3 Zrotation Yrotation Xrotation
					End Site
					{
						OFFSET 0.000000 0.000000 0.000000
					}
				}
			}
		}
	}
	JOINT Right_hip
	{
		OFFSET -6.030973 -9.051328 -1.354253
		CHANNELS 3 Zrotation Yrotation Xrotation
		JOINT Right_knee
		{
			OFFSET -4.325663 -38.368790 -0.484304
			CHANNELS 3 Zrotation Yrotation Xrotation
			JOINT Right_ankle
			{
				OFFSET 1.905555 -42.004566 -3.456167
				CHANNELS 3 Zrotation Yrotation Xrotation
				JOINT Right_foot
				{
					OFFSET -3.483987 -6.210554 13.032330
					CHANNELS 3 Zrotation Yrotation Xrotation
					End Site
					{
						OFFSET 0.000000 0.000000 0.000000
					}
				}
			}
		}
	}
	JOINT Spine1
	{
		OFFSET 0.443945 12.440353 -3.838522
		CHANNELS 3 Zrotation Yrotation Xrotation
		JOINT Spine2
		{
			OFFSET 0.448844 13.795640 2.682033
			CHANNELS 3 Zrotation Yrotation Xrotation
			JOINT Spine3
			{
				OFFSET -0.226460 5.603239 0.285504
				CHANNELS 3 Zrotation Yrotation Xrotation
				JOINT Neck
				{
					OFFSET -1.339018 21.163553 -3.346758
					CHANNELS 3 Zrotation Yrotation Xrotation
					JOINT Head
					{
						OFFSET 1.011321 8.893734 5.040987
						CHANNELS 3 Zrotation Yrotation Xrotation
						End Site
						{
							OFFSET 0.000000 0.000000 0.000000
						}
					}
				}
				JOINT Left_collar
				{
					OFFSET 7.170247 11.399971 -1.889817
					CHANNELS 3 Zrotation Yrotation Xrotation
					JOINT Left_shoulder
					{
						OFFSET 12.292140 4.520507 -1.904600
						CHANNELS 3 Zrotation Yrotation Xrotation
						JOINT Left_elbow
						{
							OFFSET 25.533188 -1.564902 -2.294648
							CHANNELS 3 Zrotation Yrotation Xrotation
							JOINT Left_wrist
							{
								OFFSET 26.570929 1.269810 -0.737473
								CHANNELS 3 Zrotation Yrotation Xrotation
								JOINT Left_palm
								{
									OFFSET 8.669054 -1.063602 -1.559429
									CHANNELS 3 Zrotation Yrotation Xrotation
									End Site
									{
										OFFSET 0.000000 0.000000 0.000000
									}
								}
							}
						}
					}
				}
				JOINT Right_collar
				{
					OFFSET -8.295364 11.247234 -2.370738
					CHANNELS 3 Zrotation Yrotation Xrotation
					JOINT Right_shoulder
					{
						OFFSET -11.322830 4.685326 -0.847207
						CHANNELS 3 Zrotation Yrotation Xrotation
						JOINT Right_elbow
						{
							OFFSET -26.012751 -1.436928 -3.126872
							CHANNELS 3 Zrotation Yrotation Xrotation
							JOINT Right_wrist
							{
								OFFSET -26.910841 0.679372 -0.602677
								CHANNELS 3 Zrotation Yrotation Xrotation
								JOINT Right_palm
								{
									OFFSET -8.875370 -0.865157 -1.010708
									CHANNELS 3 Zrotation Yrotation Xrotation
									End Site
									{
										OFFSET 0.000000 0.000000 0.000000
									}
								}
							}
						}
					}
				}
			}
		}
	}
}
MOTION
Frames: 9
Frame Time: 0.016667
-0.217368 38.228645 2.858379 -0.418860 4.064601 -19.212121 10.518446 -0.086846 -55.879379 -16.631591 15.109085 85.620429 5.301407 6.936779 -14.208344 0.000000 0.000000 0.000000 -11.006235 0.469952 -54.792279 16.539718 -14.399282 86.285374 -2.997567 -1.506660 -13.095685 0.000000 0.000000 0.000000 -0.066013 -1.273258 30.919683 0.639253 -0.137020 -4.921695 0.494050 1.666913 0.680669 -0.016543 0.533978 -6.830251 0.000000 0.000000 0.000000 -18.824403 -7.519652 2.040741 -51.497163 -5.959538 -3.212378 -9.900374 -22.264147 2.730168 0.000000 0.000000 0.000000 0.000000 0.000000 0.000000 20.361615 6.372953 1.457877 51.702182 7.453359 -1.429709 2.923294 20.685445 1.113719 0.000000 0.000000 0.000000 0.000000 0.000000 0.000000 
-0.228908 38.193283 2.867160 -0.789005 4.855368 -19.855463 10.370808 -0.162900 -55.865974 -16.015301 14.641693 86.592380 4.217536 4.191355 -13.220477 0.000000 0.000000 0.000000 -10.542831 0.704641 -55.615930 15.585436 -13.677273 87.941178 -2.120176 -1.172900 -8.778338 0.000000 0.000000 0.000000 -0.445179 -1.190856 31.570621 0.570042 -0.075358 -5.890404 1.773070 0.472703 2.014283 -1.804161 1.839938 -8.097940 0.000000 0.000000 0.000000 -18.827407 -6.718546 1.610083 -52.181905 -5.023602 -3.658058 -9.409796 -23.191058 2.749272 0.000000 0.000000 0.000000 0.000000 0.000000 0.000000 20.140470 6.213243 1.377530 52.105819 6.926832 -1.664274 2.238329 21.995612 1.071519 0.000000 0.000000 0.000000 0.000000 0.000000 0.000000 
-0.225815 38.142502 2.888824 -0.618625 4.217008 -20.077813 10.972598 0.150222 -56.406966 -16.967969 15.649630 86.207778 4.151997 5.633579 -9.463618 0.000000 0.000000 0.000000 -10.804923 0.568722 -54.829591 15.912306 -14.018995 87.748699 -2.662166 -2.945729 -8.738414 0.000000 0.000000 0.000000 -0.092203 -1.312697 32.005097 0.740726 -0.136096 -6.198978 1.457654 1.364234 2.733227 -2.440891 2.264641 -7.924801 0.000000 0.000000 0.000000 -20.205835 -7.259598 1.857025 -50.689492 -5.639598 -3.293907 -8.716481 -23.378341 2.630445 0.000000 0.000000 0.000000 0.000000 0.000000 0.000000 21.902748 6.965403 1.740118 50.802663 6.126073 -1.959527 1.557063 23.789395 1.036474 0.000000 0.000000 0.000000 0.000000 0.000000 0.000000 
-0.239999 37.997063 2.891764 -0.903527 5.162062 -20.073687 10.647779 -0.017736 -56.980306 -17.555685 16.157424 85.581824 3.413166 4.470915 -7.667079 0.000000 0.000000 0.000000 -11.346503 0.303667 -55.063877 16.381669 -14.257907 86.454533 -1.910200 -1.394336 -7.258871 0.000000 0.000000 0.000000 0.568931 -1.526815 32.374528 0.451028 0.013035 -7.113042 1.886842 0.199881 1.990414 -4.041595 3.352752 -7.948387 0.000000 0.000000 0.000000 -20.898130 -6.369121 1.335629 -49.634829 -4.915979 -3.515979 -10.293996 -22.444897 2.830744 0.000000 0.000000 0.000000 0.000000 0.000000 0.000000 21.929611 6.641200 1.551952 50.588005 4.571249 -2.590338 1.939104 25.368006 1.188334 0.000000 0.000000 0.000000 0.000000 0.000000 0.000000 
-0.236114 37.966644 2.911618 -0.651293 5.145401 -19.849099 10.829263 0.079002 -57.217418 -18.364017 16.948364 85.116255 4.273363 6.568204 -7.809548 0.000000 0.000000 0.000000 -11.719005 0.120733 -54.918347 15.889957 -13.845631 87.124671 -2.098212 -1.445478 -8.196099 0.000000 0.000000 0.000000 0.456146 -1.480372 32.114467 0.180804 0.122399 -7.101855 1.985780 0.150509 2.151130 -3.904296 3.257780 -7.867697 0.000000 0.000000 0.000000 -21.025124 -6.824022 1.585770 -49.301226 -4.475620 -3.667400 -10.747579 -22.533551 2.932095 0.000000 0.000000 0.000000 0.000000 0.000000 0.000000 22.691328 6.645282 1.526868 50.121393 4.815193 -2.467352 0.877798 25.895381 0.992686 0.000000 0.000000 0.000000 0.000000 0.000000 0.000000 
-0.242601 37.750046 2.923996 -0.830350 5.376602 -20.146446 10.822520 0.075612 -57.261132 -18.500115 17.155804 85.299088 3.808152 5.518429 -7.515868 0.000000 0.000000 0.000000 -11.600928 0.178646 -54.936250 15.829376 -13.768105 87.095825 -2.047663 -1.223140 -8.300604 0.000000 0.000000 0.000000 0.474298 -1.491363 32.229203 0.465906 -0.006185 -6.696281 2.036003 0.024576 1.562504 -3.909026 3.247604 -7.267529 0.000000 0.000000 0.000000 -20.543229 -6.890933 1.640908 -49.949321 -4.456931 -3.725327 -10.194316 -21.856396 2.734212 0.000000 0.000000 0.000000 0.000000 0.000000 0.000000 22.191242 6.955643 1.725160 50.104808 4.872187 -2.443440 1.184938 25.247380 1.028842 0.000000 0.000000 0.000000 0.000000 0.000000 0.000000 
-0.243725 37.753380 2.933486 -0.859050 5.300163 -20.068324 10.866287 0.098974 -57.290811 -18.598054 17.296276 85.398210 4.054383 6.068309 -7.683221 0.000000 0.000000 0.000000 -11.436828 0.259245 -54.613574 15.861833 -13.692671 86.607643 -2.198411 -1.317953 -8.961234 0.000000 0.000000 0.000000 0.348817 -1.454247 32.235757 0.695346 -0.093052 -6.909636 1.990707 0.008943 1.698609 -4.071446 3.364002 -7.502370 0.000000 0.000000 0.000000 -20.640841 -6.848919 1.613933 -49.904063 -4.504959 -3.702337 -10.474541 -22.121684 2.823179 0.000000 0.000000 0.000000 0.000000 0.000000 0.000000 22.359849 6.982473 1.735344 50.046075 5.143273 -2.330850 1.173360 25.422309 1.034059 0.000000 0.000000 0.000000 0.000000 0.000000 0.000000 
-0.242991 37.687866 2.941057 -0.858634 5.242927 -20.214683 10.752826 0.039089 -57.393286 -18.705805 17.486965 85.627846 4.238833 6.577216 -7.545053 0.000000 0.000000 0.000000 -11.027652 0.458159 -54.488157 15.698391 -13.521346 86.686787 -2.369205 -1.657379 -9.331688 0.000000 0.000000 0.000000 0.272448 -1.437507 32.364614 0.980754 -0.203387 -7.076194 1.895216 0.092376 1.827985 -3.954056 3.279969 -7.332322 0.000000 0.000000 0.000000 -20.487035 -6.610255 1.486950 -50.174473 -4.696468 -3.645188 -10.609101 -22.210331 2.861196 0.000000 0.000000 0.000000 0.000000 0.000000 0.000000 22.078261 6.975141 1.740117 50.038538 5.589023 -2.149940 1.233178 25.135773 1.033763 0.000000 0.000000 0.000000 0.000000 0.000000 0.000000 
-0.244320 37.657127 2.950474 -0.848815 5.322831 -20.191000 10.669866 -0.004979 -57.421473 -18.473670 17.358253 86.095491 4.270325 6.627281 -7.623572 0.000000 0.000000 0.000000 -10.944707 0.499174 -54.621873 15.647210 -13.506657 86.883168 -2.434306 -1.781674 -9.484974 0.000000 0.000000 0.000000 0.246544 -1.439091 32.564747 1.030382 -0.226185 -7.005856 1.851095 0.008089 1.681816 -3.964651 3.283459 -7.157796 0.000000 0.000000 0.000000 -20.499235 -6.599074 1.480255 -50.066133 -4.771996 -3.606241 -10.672522 -22.443326 2.905046 0.000000 0.000000 0.000000 0.000000 0.000000 0.000000 22.070565 7.058960 1.788955 49.953036 5.851215 -2.040343 1.240455 25.215737 1.038744 0.000000 0.000000 0.000000 0.000000 0.000000 0.000000 
